<?xml version="1.0" standalone="no"?>
<!DOCTYPE svg PUBLIC "-//W3C//DTD SVG 20010904//EN"
 "http://www.w3.org/TR/2001/REC-SVG-20010904/DTD/svg10.dtd">
<svg version="1.0" xmlns="http://www.w3.org/2000/svg"
 width="750.000000pt" height="750.000000pt" viewBox="0 0 750.000000 750.000000"
 preserveAspectRatio="xMidYMid meet">

<g transform="translate(0.000000,750.000000) scale(0.100000,-0.100000)"
fill="#FFFFFF" stroke="none">
<path d="M3320 7075 l-355 -356 150 7 150 7 208 213 c115 118 212 214 216 214
6 0 100 -87 431 -395 34 -32 37 -33 155 -40 l120 -7 -355 356 c-195 196 -357
356 -360 356 -3 0 -165 -160 -360 -355z"/>
<path d="M3655 7001 c-58 -25 -59 -96 -3 -212 l36 -74 37 78 c46 95 55 153 29
185 -21 25 -69 36 -99 23z"/>
<path d="M3659 6664 c-39 -42 -110 -83 -179 -105 -81 -26 -248 -28 -365 -5
-44 9 -83 16 -88 16 -4 0 18 -37 49 -82 68 -99 146 -258 170 -348 11 -41 19
-107 20 -179 l2 -115 47 -38 c49 -39 216 -128 241 -128 8 0 14 -4 14 -10 0
-13 -87 -13 -168 0 -84 14 -174 51 -257 106 l-68 44 -214 0 -215 0 46 -85
c152 -287 402 -470 721 -530 112 -21 411 -16 549 10 298 55 529 190 665 388
37 54 75 136 85 184 l7 32 -208 -5 -208 -5 -106 -50 c-131 -60 -234 -88 -361
-96 -143 -9 -153 3 -33 39 112 33 229 86 273 123 26 22 30 32 35 107 16 198
121 462 247 620 17 20 30 38 30 40 0 2 -42 -7 -92 -20 -234 -60 -433 -31 -574
84 l-41 33 -24 -25z"/>
<path d="M2672 6427 c-72 -73 -132 -134 -132 -137 0 -3 41 -3 91 0 l90 5 94
79 94 79 -15 28 c-12 24 -72 79 -85 79 -2 0 -64 -60 -137 -133z"/>
<path d="M4532 6525 c-61 -69 -83 -40 358 -480 221 -220 421 -428 446 -461 78
-109 99 -166 99 -269 0 -54 -6 -103 -14 -122 l-13 -33 -25 19 c-37 30 -77 35
-131 17 -145 -48 -190 -242 -80 -342 53 -49 109 -69 193 -69 92 0 141 20 193
80 71 81 97 180 87 329 -14 183 -49 288 -137 404 -71 95 -662 699 -904 925
l-41 38 -31 -36z"/>
<path d="M1900 6316 c-150 -42 -263 -157 -318 -324 -22 -66 -25 -95 -26 -207
0 -98 4 -145 18 -190 65 -217 230 -367 465 -426 75 -19 104 -21 255 -16 160 4
255 19 339 53 15 5 10 -10 -23 -75 -164 -327 -150 -584 44 -775 39 -39 87 -80
105 -90 l34 -19 -45 64 c-101 142 -145 275 -132 396 3 35 9 63 13 63 3 0 14
-28 24 -63 63 -214 200 -347 417 -404 96 -25 302 -22 455 5 217 39 231 51 90
74 -175 29 -291 104 -396 255 -48 70 -51 76 -24 59 213 -140 394 -196 630
-195 72 0 149 4 173 8 23 5 42 5 42 1 0 -15 -77 -106 -121 -144 -90 -77 -230
-144 -361 -171 l-28 -5 35 -49 c102 -142 132 -321 71 -426 -29 -48 -55 -68
-114 -86 -109 -32 -204 66 -157 164 21 44 60 62 121 53 43 -5 45 -5 33 12 -45
59 -105 68 -175 27 -61 -36 -95 -98 -95 -170 0 -88 42 -144 145 -191 51 -23
67 -26 135 -22 119 7 195 58 243 163 19 42 23 67 23 150 0 84 -4 112 -28 175
-15 41 -45 99 -67 128 -22 28 -38 52 -36 52 3 0 24 -8 48 -19 68 -30 124 -76
155 -128 24 -41 28 -60 31 -145 3 -54 7 -98 10 -98 2 0 41 24 86 54 219 147
338 296 353 442 7 65 19 60 53 -18 31 -73 25 -161 -19 -254 -17 -37 -29 -70
-25 -73 3 -3 60 -6 127 -6 113 0 126 2 178 28 53 26 159 123 159 146 0 7 -27
11 -67 11 -89 1 -143 25 -167 74 -33 70 3 146 120 251 99 89 134 143 134 207
0 27 -6 61 -14 76 -31 58 -127 132 -256 197 -122 61 -121 69 23 181 61 48 117
91 122 96 6 6 -81 8 -215 6 l-225 -3 -120 -43 c-194 -69 -339 -95 -535 -95
-190 0 -309 20 -470 80 -117 44 -179 75 -295 148 -84 54 -92 56 -120 45 -170
-67 -287 -92 -430 -93 -181 -1 -306 44 -411 148 -103 103 -149 233 -142 411 3
89 7 108 36 166 78 158 262 264 412 236 88 -16 159 -72 197 -156 24 -54 22
-199 -5 -277 l-20 -60 29 34 c58 70 74 117 73 221 0 75 -5 105 -22 144 -69
153 -203 227 -406 225 -55 0 -121 -6 -146 -13z"/>
<path d="M5927 4906 c-72 -26 -107 -76 -107 -153 0 -93 75 -160 170 -151 86 9
140 70 140 161 0 58 -32 105 -90 135 -51 25 -61 26 -113 8z"/>
<path d="M6550 4685 c0 -11 7 -60 15 -110 8 -49 18 -142 21 -205 l6 -115 241
-242 242 -243 -246 -247 c-243 -245 -246 -249 -263 -310 -25 -93 -45 -217 -52
-323 l-6 -95 488 487 489 488 -468 467 c-315 316 -467 461 -467 448z"/>
<path d="M460 4215 l-445 -445 355 -355 c195 -195 355 -353 356 -352 1 1 -3
50 -9 109 -7 74 -7 135 0 200 l10 93 -151 153 -151 152 188 188 c125 125 187
194 187 208 0 53 45 279 75 379 19 60 33 111 31 112 -1 1 -202 -198 -446 -442z"/>
<path d="M1365 4521 c-61 -17 -86 -32 -129 -75 -92 -96 -162 -283 -201 -541
-5 -35 0 -29 40 49 54 106 98 168 159 224 71 65 99 76 198 77 78 0 89 2 113
25 79 72 70 182 -18 220 -51 22 -122 31 -162 21z"/>
<path d="M6100 4438 c-299 -359 -564 -538 -796 -538 -41 0 -74 -4 -74 -9 0
-18 156 -168 219 -210 53 -36 198 -111 215 -111 2 0 10 17 17 38 19 60 67 148
99 186 65 74 164 97 218 51 106 -89 -11 -228 -232 -278 -38 -9 -72 -19 -76
-24 -14 -14 8 -186 34 -268 14 -44 42 -109 63 -145 47 -81 195 -232 288 -294
l70 -46 7 147 c12 275 66 450 225 737 50 91 39 229 -34 426 -35 96 -149 325
-181 368 l-18 23 -44 -53z"/>
<path d="M2890 4248 c0 -2 5 -30 10 -61 15 -79 1 -128 -50 -168 -22 -18 -40
-39 -40 -46 0 -59 151 -221 250 -270 109 -53 106 -54 113 23 11 113 68 208
147 242 19 8 75 18 123 21 l89 6 -47 93 -46 92 -102 0 c-161 0 -346 28 -429
65 -10 4 -18 5 -18 3z"/>
<path d="M1783 4080 c-320 -68 -605 -335 -717 -672 -43 -127 -57 -223 -57
-373 0 -660 369 -1344 971 -1800 407 -308 912 -502 1490 -571 181 -22 612 -25
775 -5 565 68 1021 269 1372 605 178 171 298 331 394 525 92 187 124 320 117
474 -10 190 -89 367 -222 502 -86 87 -184 147 -308 187 -121 40 -321 51 -442
24 -221 -50 -373 -198 -440 -430 -51 -174 -25 -279 94 -389 78 -73 147 -99
257 -100 69 0 90 4 137 27 98 48 153 144 144 252 -8 96 -66 144 -173 144 -34
0 -87 -7 -119 -15 -33 -9 -61 -13 -64 -11 -8 9 60 91 104 125 69 52 136 73
237 72 134 0 200 -23 268 -90 66 -66 93 -135 110 -277 29 -246 -41 -510 -193
-731 -70 -103 -230 -262 -348 -346 -180 -127 -433 -239 -657 -290 -138 -30
-490 -30 -698 2 -537 81 -871 271 -1142 649 -40 56 -48 76 -70 180 -50 235
-148 472 -273 662 -81 122 -250 293 -340 342 -166 93 -291 87 -392 -19 -56
-58 -128 -231 -128 -307 0 -51 -20 11 -44 134 -77 402 -57 696 65 949 43 88
63 116 132 185 127 127 240 176 408 176 96 0 180 -21 251 -63 57 -33 130 -112
162 -174 25 -51 52 -140 44 -148 -2 -2 -26 3 -53 11 -76 23 -202 22 -250 -2
-59 -29 -79 -63 -83 -143 -6 -94 17 -169 63 -210 44 -39 66 -44 162 -39 100 4
160 33 214 100 51 65 73 140 72 248 -1 277 -178 522 -436 606 -69 22 -104 27
-217 30 -74 2 -154 -1 -177 -6z m167 -1436 c60 -28 122 -75 189 -144 52 -52
123 -141 118 -146 -2 -2 -37 9 -78 23 -106 38 -237 44 -301 13 -73 -34 -121
-109 -134 -211 -4 -28 -10 -47 -15 -42 -4 4 -20 53 -35 108 -37 136 -39 280
-6 342 44 83 154 107 262 57z"/>
<path d="M4080 3716 c-97 -36 -235 -122 -293 -183 l-27 -29 144 47 c173 57
299 85 340 75 115 -29 184 -304 145 -581 -16 -117 -95 -396 -105 -370 -2 6
-24 150 -49 320 -25 171 -47 325 -50 342 -9 52 -27 56 -229 49 -100 -4 -205
-9 -234 -13 l-52 -5 52 -37 c78 -54 113 -110 113 -178 0 -50 -3 -57 -37 -89
-29 -26 -46 -34 -75 -34 -102 0 -163 112 -163 301 l0 69 -125 0 -125 0 -34
-52 c-46 -74 -96 -174 -173 -351 -127 -294 -216 -449 -321 -560 -61 -63 -153
-134 -215 -163 l-37 -18 22 -24 c91 -97 296 -239 425 -292 149 -62 250 -82
425 -84 l156 -1 37 -97 c71 -187 184 -355 304 -454 55 -46 223 -144 246 -144
4 0 -31 40 -78 89 -83 88 -185 229 -232 320 -58 116 -116 328 -115 425 1 38 4
43 56 80 107 74 143 173 86 237 -22 24 -36 31 -66 31 -78 0 -135 -80 -144
-202 l-5 -69 -66 -15 c-135 -31 -217 -38 -361 -33 -199 6 -314 44 -470 156
l-65 46 85 8 c217 19 370 69 518 170 146 100 258 254 325 450 9 25 41 21 133
-16 134 -54 305 -172 453 -310 l51 -48 -11 -167 c-7 -95 -9 -251 -6 -362 9
-286 44 -473 121 -636 56 -118 71 -126 195 -100 260 53 448 206 556 449 l24
56 -57 16 c-84 25 -219 98 -294 159 -103 86 -185 220 -220 364 -6 26 -11 94
-11 152 0 341 225 631 558 716 95 25 290 25 404 1 119 -26 119 -26 97 140 -25
184 -19 169 -81 176 -69 7 -141 39 -186 83 l-37 36 -98 -13 c-132 -16 -400
-16 -499 0 -106 17 -219 54 -334 107 -157 73 -219 86 -291 60z"/>
<path d="M3582 204 l168 -169 162 163 163 162 -260 0 c-143 0 -291 3 -330 6
l-70 6 167 -168z"/>
</g>
</svg>
